<?xml version="1.0" encoding="us-ascii" standalone="no"?><svg xmlns="http://www.w3.org/2000/svg" xmlns:xlink="http://www.w3.org/1999/xlink" contentStyleType="text/css" height="838px" preserveAspectRatio="none" style="width:1764px;height:838px;background:#FFFFFF;" version="1.1" viewBox="0 0 1764 838" width="1764px" zoomAndPan="magnify"><defs/><g><!--cluster Architecture--><g id="cluster_Architecture"><polygon fill="none" points="16,16,26,6,1747,6,1747,811,1737,821,16,821,16,16" style="stroke:#181818;stroke-width:1.0;"/><line style="stroke:#181818;stroke-width:1.0;" x1="1737" x2="1747" y1="16" y2="6"/><line style="stroke:#181818;stroke-width:1.0;" x1="16" x2="1737" y1="16" y2="16"/><line style="stroke:#181818;stroke-width:1.0;" x1="1737" x2="1737" y1="16" y2="821"/><text fill="#000000" font-family="sans-serif" font-size="14" font-weight="bold" lengthAdjust="spacing" textLength="87" x="834" y="33.5332">Architecture</text></g><!--cluster security--><g id="cluster_security"><polygon fill="none" points="344,65,354,55,917,55,917,150,907,160,344,160,344,65" style="stroke:#181818;stroke-width:1.0;"/><line style="stroke:#181818;stroke-width:1.0;" x1="907" x2="917" y1="65" y2="55"/><line style="stroke:#181818;stroke-width:1.0;" x1="344" x2="907" y1="65" y2="65"/><line style="stroke:#181818;stroke-width:1.0;" x1="907" x2="907" y1="65" y2="160"/><text fill="#000000" font-family="sans-serif" font-size="14" font-weight="bold" lengthAdjust="spacing" textLength="56" x="598.5" y="82.5332">security</text></g><!--cluster frontend--><g id="cluster_frontend"><polygon fill="none" points="462,220,472,210,1588,210,1588,533,1578,543,462,543,462,220" style="stroke:#181818;stroke-width:1.0;"/><line style="stroke:#181818;stroke-width:1.0;" x1="1578" x2="1588" y1="220" y2="210"/><line style="stroke:#181818;stroke-width:1.0;" x1="462" x2="1578" y1="220" y2="220"/><line style="stroke:#181818;stroke-width:1.0;" x1="1578" x2="1578" y1="220" y2="543"/><text fill="#000000" font-family="sans-serif" font-size="14" font-weight="bold" lengthAdjust="spacing" textLength="61" x="990.5" y="237.5332">frontend</text></g><!--cluster renderers--><g id="cluster_renderers"><polygon fill="none" points="1319,269,1329,259,1564,259,1564,354,1554,364,1319,364,1319,269" style="stroke:#181818;stroke-width:1.0;"/><line style="stroke:#181818;stroke-width:1.0;" x1="1554" x2="1564" y1="269" y2="259"/><line style="stroke:#181818;stroke-width:1.0;" x1="1319" x2="1554" y1="269" y2="269"/><line style="stroke:#181818;stroke-width:1.0;" x1="1554" x2="1554" y1="269" y2="364"/><text fill="#000000" font-family="sans-serif" font-size="14" font-weight="bold" lengthAdjust="spacing" textLength="71" x="1402" y="286.5332">renderers</text></g><!--cluster editors--><g id="cluster_editors"><polygon fill="none" points="1035,269,1045,259,1295,259,1295,509,1285,519,1035,519,1035,269" style="stroke:#181818;stroke-width:1.0;"/><line style="stroke:#181818;stroke-width:1.0;" x1="1285" x2="1295" y1="269" y2="259"/><line style="stroke:#181818;stroke-width:1.0;" x1="1035" x2="1285" y1="269" y2="269"/><line style="stroke:#181818;stroke-width:1.0;" x1="1285" x2="1285" y1="269" y2="519"/><text fill="#000000" font-family="sans-serif" font-size="14" font-weight="bold" lengthAdjust="spacing" textLength="50" x="1136" y="286.5332">editors</text></g><!--cluster backend--><g id="cluster_backend"><polygon fill="none" points="175,424,185,414,438,414,438,787,428,797,175,797,175,424" style="stroke:#181818;stroke-width:1.0;"/><line style="stroke:#181818;stroke-width:1.0;" x1="428" x2="438" y1="424" y2="414"/><line style="stroke:#181818;stroke-width:1.0;" x1="175" x2="428" y1="424" y2="424"/><line style="stroke:#181818;stroke-width:1.0;" x1="428" x2="428" y1="424" y2="797"/><text fill="#000000" font-family="sans-serif" font-size="14" font-weight="bold" lengthAdjust="spacing" textLength="60" x="272.5" y="441.5332">backend</text></g><!--cluster integrations--><g id="cluster_integrations"><polygon fill="none" points="40,269,50,259,342,259,342,354,332,364,40,364,40,269" style="stroke:#181818;stroke-width:1.0;"/><line style="stroke:#181818;stroke-width:1.0;" x1="332" x2="342" y1="269" y2="259"/><line style="stroke:#181818;stroke-width:1.0;" x1="40" x2="332" y1="269" y2="269"/><line style="stroke:#181818;stroke-width:1.0;" x1="332" x2="332" y1="269" y2="364"/><text fill="#000000" font-family="sans-serif" font-size="14" font-weight="bold" lengthAdjust="spacing" textLength="85" x="144.5" y="286.5332">integrations</text></g><!--entity cloud hosting--><g id="elem_cloud hosting"><rect fill="#F1F1F1" height="47.6094" rx="2.5" ry="2.5" style="stroke:#181818;stroke-width:0.5;" width="124" x="200" y="96"/><rect fill="#F1F1F1" height="10" style="stroke:#181818;stroke-width:0.5;" width="15" x="304" y="101"/><rect fill="#F1F1F1" height="2" style="stroke:#181818;stroke-width:0.5;" width="4" x="302" y="103"/><rect fill="#F1F1F1" height="2" style="stroke:#181818;stroke-width:0.5;" width="4" x="302" y="107"/><text fill="#000000" font-family="sans-serif" font-size="14" lengthAdjust="spacing" textLength="84" x="215" y="130.5332">cloud hosting</text></g><!--entity CI/CD pipeline--><g id="elem_CI/CD pipeline"><rect fill="#F1F1F1" height="47.6094" rx="2.5" ry="2.5" style="stroke:#181818;stroke-width:0.5;" width="130" x="33" y="96"/><rect fill="#F1F1F1" height="10" style="stroke:#181818;stroke-width:0.5;" width="15" x="143" y="101"/><rect fill="#F1F1F1" height="2" style="stroke:#181818;stroke-width:0.5;" width="4" x="141" y="103"/><rect fill="#F1F1F1" height="2" style="stroke:#181818;stroke-width:0.5;" width="4" x="141" y="107"/><text fill="#000000" font-family="sans-serif" font-size="14" lengthAdjust="spacing" textLength="90" x="48" y="130.5332">CI/CD pipeline</text></g><!--entity Access Control--><g id="elem_Access Control"><rect fill="#F1F1F1" height="47.6094" rx="2.5" ry="2.5" style="stroke:#181818;stroke-width:0.5;" width="135" x="467.5" y="96"/><rect fill="#F1F1F1" height="10" style="stroke:#181818;stroke-width:0.5;" width="15" x="582.5" y="101"/><rect fill="#F1F1F1" height="2" style="stroke:#181818;stroke-width:0.5;" width="4" x="580.5" y="103"/><rect fill="#F1F1F1" height="2" style="stroke:#181818;stroke-width:0.5;" width="4" x="580.5" y="107"/><text fill="#000000" font-family="sans-serif" font-size="14" lengthAdjust="spacing" textLength="95" x="482.5" y="130.5332">Access Control</text></g><!--entity Encryption--><g id="elem_Encryption"><rect fill="#F1F1F1" height="47.6094" rx="2.5" ry="2.5" style="stroke:#181818;stroke-width:0.5;" width="107" x="793.5" y="96"/><rect fill="#F1F1F1" height="10" style="stroke:#181818;stroke-width:0.5;" width="15" x="880.5" y="101"/><rect fill="#F1F1F1" height="2" style="stroke:#181818;stroke-width:0.5;" width="4" x="878.5" y="103"/><rect fill="#F1F1F1" height="2" style="stroke:#181818;stroke-width:0.5;" width="4" x="878.5" y="107"/><text fill="#000000" font-family="sans-serif" font-size="14" lengthAdjust="spacing" textLength="67" x="808.5" y="130.5332">Encryption</text></g><!--entity OAuth2/JWT--><g id="elem_OAuth2/JWT"><rect fill="#F1F1F1" height="47.6094" rx="2.5" ry="2.5" style="stroke:#181818;stroke-width:0.5;" width="120" x="638" y="96"/><rect fill="#F1F1F1" height="10" style="stroke:#181818;stroke-width:0.5;" width="15" x="738" y="101"/><rect fill="#F1F1F1" height="2" style="stroke:#181818;stroke-width:0.5;" width="4" x="736" y="103"/><rect fill="#F1F1F1" height="2" style="stroke:#181818;stroke-width:0.5;" width="4" x="736" y="107"/><text fill="#000000" font-family="sans-serif" font-size="14" lengthAdjust="spacing" textLength="80" x="653" y="130.5332">OAuth2/JWT</text></g><!--entity Audit--><g id="elem_Audit"><rect fill="#F1F1F1" height="47.6094" rx="2.5" ry="2.5" style="stroke:#181818;stroke-width:0.5;" width="72" x="360" y="96"/><rect fill="#F1F1F1" height="10" style="stroke:#181818;stroke-width:0.5;" width="15" x="412" y="101"/><rect fill="#F1F1F1" height="2" style="stroke:#181818;stroke-width:0.5;" width="4" x="410" y="103"/><rect fill="#F1F1F1" height="2" style="stroke:#181818;stroke-width:0.5;" width="4" x="410" y="107"/><text fill="#000000" font-family="sans-serif" font-size="14" lengthAdjust="spacing" textLength="32" x="375" y="130.5332">Audit</text></g><!--entity Nextjs--><g id="elem_Nextjs"><rect fill="#F1F1F1" height="47.6094" rx="2.5" ry="2.5" style="stroke:#181818;stroke-width:0.5;" width="77" x="939.5" y="300"/><rect fill="#F1F1F1" height="10" style="stroke:#181818;stroke-width:0.5;" width="15" x="996.5" y="305"/><rect fill="#F1F1F1" height="2" style="stroke:#181818;stroke-width:0.5;" width="4" x="994.5" y="307"/><rect fill="#F1F1F1" height="2" style="stroke:#181818;stroke-width:0.5;" width="4" x="994.5" y="311"/><text fill="#000000" font-family="sans-serif" font-size="14" lengthAdjust="spacing" textLength="37" x="954.5" y="334.5332">Nextjs</text></g><!--entity Redux Toolkit--><g id="elem_Redux Toolkit"><rect fill="#F1F1F1" height="47.6094" rx="2.5" ry="2.5" style="stroke:#181818;stroke-width:0.5;" width="126" x="778" y="300"/><rect fill="#F1F1F1" height="10" style="stroke:#181818;stroke-width:0.5;" width="15" x="884" y="305"/><rect fill="#F1F1F1" height="2" style="stroke:#181818;stroke-width:0.5;" width="4" x="882" y="307"/><rect fill="#F1F1F1" height="2" style="stroke:#181818;stroke-width:0.5;" width="4" x="882" y="311"/><text fill="#000000" font-family="sans-serif" font-size="14" lengthAdjust="spacing" textLength="86" x="793" y="334.5332">Redux Toolkit</text></g><!--entity Tailwind CSS--><g id="elem_Tailwind CSS"><rect fill="#F1F1F1" height="47.6094" rx="2.5" ry="2.5" style="stroke:#181818;stroke-width:0.5;" width="123" x="619.5" y="300"/><rect fill="#F1F1F1" height="10" style="stroke:#181818;stroke-width:0.5;" width="15" x="722.5" y="305"/><rect fill="#F1F1F1" height="2" style="stroke:#181818;stroke-width:0.5;" width="4" x="720.5" y="307"/><rect fill="#F1F1F1" height="2" style="stroke:#181818;stroke-width:0.5;" width="4" x="720.5" y="311"/><text fill="#000000" font-family="sans-serif" font-size="14" lengthAdjust="spacing" textLength="83" x="634.5" y="334.5332">Tailwind CSS</text></g><!--entity NextAuthjs--><g id="elem_NextAuthjs"><rect fill="#F1F1F1" height="47.6094" rx="2.5" ry="2.5" style="stroke:#181818;stroke-width:0.5;" width="106" x="478" y="300"/><rect fill="#F1F1F1" height="10" style="stroke:#181818;stroke-width:0.5;" width="15" x="564" y="305"/><rect fill="#F1F1F1" height="2" style="stroke:#181818;stroke-width:0.5;" width="4" x="562" y="307"/><rect fill="#F1F1F1" height="2" style="stroke:#181818;stroke-width:0.5;" width="4" x="562" y="311"/><text fill="#000000" font-family="sans-serif" font-size="14" lengthAdjust="spacing" textLength="66" x="493" y="334.5332">NextAuthjs</text></g><!--entity Markmap--><g id="elem_Markmap"><rect fill="#F1F1F1" height="47.6094" rx="2.5" ry="2.5" style="stroke:#181818;stroke-width:0.5;" width="98" x="1450" y="300"/><rect fill="#F1F1F1" height="10" style="stroke:#181818;stroke-width:0.5;" width="15" x="1528" y="305"/><rect fill="#F1F1F1" height="2" style="stroke:#181818;stroke-width:0.5;" width="4" x="1526" y="307"/><rect fill="#F1F1F1" height="2" style="stroke:#181818;stroke-width:0.5;" width="4" x="1526" y="311"/><text fill="#000000" font-family="sans-serif" font-size="14" lengthAdjust="spacing" textLength="58" x="1465" y="334.5332">Markmap</text></g><!--entity tlDraw--><g id="elem_tlDraw"><rect fill="#F1F1F1" height="47.6094" rx="2.5" ry="2.5" style="stroke:#181818;stroke-width:0.5;" width="79" x="1335.5" y="300"/><rect fill="#F1F1F1" height="10" style="stroke:#181818;stroke-width:0.5;" width="15" x="1394.5" y="305"/><rect fill="#F1F1F1" height="2" style="stroke:#181818;stroke-width:0.5;" width="4" x="1392.5" y="307"/><rect fill="#F1F1F1" height="2" style="stroke:#181818;stroke-width:0.5;" width="4" x="1392.5" y="311"/><text fill="#000000" font-family="sans-serif" font-size="14" lengthAdjust="spacing" textLength="39" x="1350.5" y="334.5332">tlDraw</text></g><!--entity markedjs--><g id="elem_markedjs"><rect fill="#F1F1F1" height="47.6094" rx="2.5" ry="2.5" style="stroke:#181818;stroke-width:0.5;" width="97" x="1051.5" y="300"/><rect fill="#F1F1F1" height="10" style="stroke:#181818;stroke-width:0.5;" width="15" x="1128.5" y="305"/><rect fill="#F1F1F1" height="2" style="stroke:#181818;stroke-width:0.5;" width="4" x="1126.5" y="307"/><rect fill="#F1F1F1" height="2" style="stroke:#181818;stroke-width:0.5;" width="4" x="1126.5" y="311"/><text fill="#000000" font-family="sans-serif" font-size="14" lengthAdjust="spacing" textLength="57" x="1066.5" y="334.5332">markedjs</text></g><!--entity LaTeX.js--><g id="elem_LaTeX.js"><rect fill="#F1F1F1" height="47.6094" rx="2.5" ry="2.5" style="stroke:#181818;stroke-width:0.5;" width="95" x="1183.5" y="300"/><rect fill="#F1F1F1" height="10" style="stroke:#181818;stroke-width:0.5;" width="15" x="1258.5" y="305"/><rect fill="#F1F1F1" height="2" style="stroke:#181818;stroke-width:0.5;" width="4" x="1256.5" y="307"/><rect fill="#F1F1F1" height="2" style="stroke:#181818;stroke-width:0.5;" width="4" x="1256.5" y="311"/><text fill="#000000" font-family="sans-serif" font-size="14" lengthAdjust="spacing" textLength="55" x="1198.5" y="334.5332">LaTeX.js</text></g><!--entity hugeRTE--><g id="elem_hugeRTE"><rect fill="#F1F1F1" height="47.6094" rx="2.5" ry="2.5" style="stroke:#181818;stroke-width:0.5;" width="100" x="1051" y="455"/><rect fill="#F1F1F1" height="10" style="stroke:#181818;stroke-width:0.5;" width="15" x="1131" y="460"/><rect fill="#F1F1F1" height="2" style="stroke:#181818;stroke-width:0.5;" width="4" x="1129" y="462"/><rect fill="#F1F1F1" height="2" style="stroke:#181818;stroke-width:0.5;" width="4" x="1129" y="466"/><text fill="#000000" font-family="sans-serif" font-size="14" lengthAdjust="spacing" textLength="60" x="1066" y="489.5332">hugeRTE</text></g><!--entity Nestjs--><g id="elem_Nestjs"><rect fill="#F1F1F1" height="47.6094" rx="2.5" ry="2.5" style="stroke:#181818;stroke-width:0.5;" width="78" x="280" y="455"/><rect fill="#F1F1F1" height="10" style="stroke:#181818;stroke-width:0.5;" width="15" x="338" y="460"/><rect fill="#F1F1F1" height="2" style="stroke:#181818;stroke-width:0.5;" width="4" x="336" y="462"/><rect fill="#F1F1F1" height="2" style="stroke:#181818;stroke-width:0.5;" width="4" x="336" y="466"/><text fill="#000000" font-family="sans-serif" font-size="14" lengthAdjust="spacing" textLength="38" x="295" y="489.5332">Nestjs</text></g><!--entity Prisma ORM--><g id="elem_Prisma ORM"><rect fill="#F1F1F1" height="47.6094" rx="2.5" ry="2.5" style="stroke:#181818;stroke-width:0.5;" width="119" x="191.5" y="607"/><rect fill="#F1F1F1" height="10" style="stroke:#181818;stroke-width:0.5;" width="15" x="290.5" y="612"/><rect fill="#F1F1F1" height="2" style="stroke:#181818;stroke-width:0.5;" width="4" x="288.5" y="614"/><rect fill="#F1F1F1" height="2" style="stroke:#181818;stroke-width:0.5;" width="4" x="288.5" y="618"/><text fill="#000000" font-family="sans-serif" font-size="14" lengthAdjust="spacing" textLength="79" x="206.5" y="641.5332">Prisma ORM</text></g><!--entity Postgres--><g id="elem_Postgres"><rect fill="#F1F1F1" height="47.6094" rx="2.5" ry="2.5" style="stroke:#181818;stroke-width:0.5;" width="96" x="295" y="733"/><rect fill="#F1F1F1" height="10" style="stroke:#181818;stroke-width:0.5;" width="15" x="371" y="738"/><rect fill="#F1F1F1" height="2" style="stroke:#181818;stroke-width:0.5;" width="4" x="369" y="740"/><rect fill="#F1F1F1" height="2" style="stroke:#181818;stroke-width:0.5;" width="4" x="369" y="744"/><text fill="#000000" font-family="sans-serif" font-size="14" lengthAdjust="spacing" textLength="56" x="310" y="767.5332">Postgres</text></g><!--entity Redis--><g id="elem_Redis"><rect fill="#F1F1F1" height="47.6094" rx="2.5" ry="2.5" style="stroke:#181818;stroke-width:0.5;" width="76" x="346" y="607"/><rect fill="#F1F1F1" height="10" style="stroke:#181818;stroke-width:0.5;" width="15" x="402" y="612"/><rect fill="#F1F1F1" height="2" style="stroke:#181818;stroke-width:0.5;" width="4" x="400" y="614"/><rect fill="#F1F1F1" height="2" style="stroke:#181818;stroke-width:0.5;" width="4" x="400" y="618"/><text fill="#000000" font-family="sans-serif" font-size="14" lengthAdjust="spacing" textLength="36" x="361" y="641.5332">Redis</text></g><!--entity API Key Mgmt--><g id="elem_API Key Mgmt"><rect fill="#F1F1F1" height="47.6094" rx="2.5" ry="2.5" style="stroke:#181818;stroke-width:0.5;" width="127" x="56.5" y="300"/><rect fill="#F1F1F1" height="10" style="stroke:#181818;stroke-width:0.5;" width="15" x="163.5" y="305"/><rect fill="#F1F1F1" height="2" style="stroke:#181818;stroke-width:0.5;" width="4" x="161.5" y="307"/><rect fill="#F1F1F1" height="2" style="stroke:#181818;stroke-width:0.5;" width="4" x="161.5" y="311"/><text fill="#000000" font-family="sans-serif" font-size="14" lengthAdjust="spacing" textLength="87" x="71.5" y="334.5332">API Key Mgmt</text></g><!--entity Webhooks--><g id="elem_Webhooks"><rect fill="#F1F1F1" height="47.6094" rx="2.5" ry="2.5" style="stroke:#181818;stroke-width:0.5;" width="107" x="218.5" y="300"/><rect fill="#F1F1F1" height="10" style="stroke:#181818;stroke-width:0.5;" width="15" x="305.5" y="305"/><rect fill="#F1F1F1" height="2" style="stroke:#181818;stroke-width:0.5;" width="4" x="303.5" y="307"/><rect fill="#F1F1F1" height="2" style="stroke:#181818;stroke-width:0.5;" width="4" x="303.5" y="311"/><text fill="#000000" font-family="sans-serif" font-size="14" lengthAdjust="spacing" textLength="67" x="233.5" y="334.5332">Webhooks</text></g><!--link Encryption to Postgres--><g id="link_Encryption_Postgres"><path d="M900.76,121.12 C1047.92,122.37 1453.71,132.21 1564,202 C1617.46,235.83 1639,259.73 1639,323 C1639,323 1639,323 1639,632 C1639,695.96 631.5943,743.4991 397.0443,753.7091 " fill="none" id="Encryption-to-Postgres" style="stroke:#181818;stroke-width:1.0;"/><polygon fill="#181818" points="391.05,753.97,400.2154,757.5748,396.0453,753.7526,399.8675,749.5824,391.05,753.97" style="stroke:#181818;stroke-width:1.0;"/><text fill="#000000" font-family="sans-serif" font-size="13" lengthAdjust="spacing" textLength="90" x="1640" y="484.4951">Data Protection</text></g><!--link Audit to Nestjs--><g id="link_Audit_Nestjs"><path d="M400.86,144.31 C409.98,193.33 425.74,309.85 391,398 C382.23,420.25 368.6602,436.2037 352.8502,450.6437 " fill="none" id="Audit-to-Nestjs" style="stroke:#181818;stroke-width:1.0;"/><polygon fill="#181818" points="348.42,454.69,357.7629,451.574,352.1119,451.318,352.3678,445.667,348.42,454.69" style="stroke:#181818;stroke-width:1.0;"/><text fill="#000000" font-family="sans-serif" font-size="13" lengthAdjust="spacing" textLength="45" x="413" y="329.4951">Logging</text></g><!--link Nextjs to Nestjs--><g id="link_Nextjs_Nestjs"><path d="M955.95,348.16 C946.33,356.94 934.42,366.21 922,372 C724.74,463.94 463.2894,476.5359 364.1094,477.9259 " fill="none" id="Nextjs-to-Nestjs" style="stroke:#181818;stroke-width:1.0;"/><polygon fill="#181818" points="358.11,478.01,367.1652,481.8835,363.1095,477.9399,367.0531,473.8843,358.11,478.01" style="stroke:#181818;stroke-width:1.0;"/><text fill="#000000" font-family="sans-serif" font-size="13" lengthAdjust="spacing" textLength="21" x="892" y="394.4951">API</text></g><!--link OAuth2/JWT to NextAuthjs--><g id="link_OAuth2/JWT_NextAuthjs"><path d="M665.31,144.11 C645.49,159.14 620.55,179.99 602,202 C576.1,232.73 556.7054,268.71 544.3354,294.25 " fill="none" id="OAuth2/JWT-to-NextAuthjs" style="stroke:#181818;stroke-width:1.0;"/><polygon fill="#181818" points="541.72,299.65,549.2431,293.2937,543.8995,295.15,542.0431,289.8064,541.72,299.65" style="stroke:#181818;stroke-width:1.0;"/><text fill="#000000" font-family="sans-serif" font-size="13" lengthAdjust="spacing" textLength="58" x="626" y="190.4951">User Auth</text></g><!--link Access Control to NextAuthjs--><g id="link_Access Control_NextAuthjs"><path d="M534.54,144.17 C533.77,183.03 532.3488,254.9012 531.5788,293.7912 " fill="none" id="Access Control-to-NextAuthjs" style="stroke:#181818;stroke-width:1.0;"/><polygon fill="#181818" points="531.46,299.79,535.6374,290.8709,531.559,294.791,527.6389,290.7126,531.46,299.79" style="stroke:#181818;stroke-width:1.0;"/><text fill="#000000" font-family="sans-serif" font-size="13" lengthAdjust="spacing" textLength="63" x="534" y="190.4951">Role Mgmt</text></g><!--link Webhooks to Nestjs--><g id="link_Webhooks_Nestjs"><path d="M265.8,348.15 C262.93,362.73 261.12,381.81 266,398 C272.34,419.06 282.5021,434.9766 294.4721,450.0066 " fill="none" id="Webhooks-to-Nestjs" style="stroke:#181818;stroke-width:1.0;"/><polygon fill="#181818" points="298.21,454.7,295.7321,445.1679,295.0951,450.7888,289.4742,450.1518,298.21,454.7" style="stroke:#181818;stroke-width:1.0;"/><text fill="#000000" font-family="sans-serif" font-size="13" lengthAdjust="spacing" textLength="119" x="267" y="394.4951">External Integrations</text></g><!--link API Key Mgmt to Nestjs--><g id="link_API Key Mgmt_Nestjs"><path d="M129.92,348.34 C137.47,363.92 149.09,384.04 164,398 C197.6,429.46 240.3475,449.6124 274.0775,462.5424 " fill="none" id="API Key Mgmt-to-Nestjs" style="stroke:#181818;stroke-width:1.0;"/><polygon fill="#181818" points="279.68,464.69,272.7081,457.7336,275.0113,462.9003,269.8445,465.2035,279.68,464.69" style="stroke:#181818;stroke-width:1.0;"/><text fill="#000000" font-family="sans-serif" font-size="13" lengthAdjust="spacing" textLength="89" x="165" y="394.4951">Secure Access</text></g><!--link Prisma ORM to Postgres--><g id="link_Prisma ORM_Postgres"><path d="M268.09,655.03 C284.51,677.17 305.6254,705.6211 322.1154,727.8511 " fill="none" id="Prisma ORM-to-Postgres" style="stroke:#181818;stroke-width:1.0;"/><polygon fill="#181818" points="325.69,732.67,323.5407,723.0585,322.7111,728.6542,317.1154,727.8247,325.69,732.67" style="stroke:#181818;stroke-width:1.0;"/><text fill="#000000" font-family="sans-serif" font-size="13" lengthAdjust="spacing" textLength="67" x="303" y="699.4951">DB Queries</text></g><!--link Nestjs to Redis--><g id="link_Nestjs_Redis"><path d="M329.01,503.11 C341.19,531.21 359.2548,572.8845 371.4848,601.1145 " fill="none" id="Nestjs-to-Redis" style="stroke:#181818;stroke-width:1.0;"/><polygon fill="#181818" points="373.87,606.62,373.9626,596.7716,371.8824,602.032,366.6219,599.9518,373.87,606.62" style="stroke:#181818;stroke-width:1.0;"/><text fill="#000000" font-family="sans-serif" font-size="13" lengthAdjust="spacing" textLength="47" x="360" y="573.4951">Caching</text></g><!--link Nestjs to Prisma ORM--><g id="link_Nestjs_Prisma ORM"><path d="M305.2,503.01 C296.23,518.51 284.63,539.6 276,559 C269.04,574.64 264.5172,587.1647 259.9372,601.2347 " fill="none" id="Nestjs-to-Prisma ORM" style="stroke:#181818;stroke-width:1.0;"/><polygon fill="#181818" points="258.08,606.94,264.6693,599.6201,259.6276,602.1856,257.0622,597.1439,258.08,606.94" style="stroke:#181818;stroke-width:1.0;"/><text fill="#000000" font-family="sans-serif" font-size="13" lengthAdjust="spacing" textLength="67" x="277" y="573.4951">DB Queries</text></g><!--SRC=[RLF1Ri8m3BtdAopkswGTEKpg2WSss1XqOXBYaBLUcr4IvAGQQEBVbr9OdK9lUN6Uttjs0G2qoH1w4QM5SfYwYh07lm9Etp8jJPL1OQnJEb-rU3owYmUmLLiibSQLEDuqN1RJYfJRznXDbAPeBSH6Ep8bundgbFPRfuncu6jKkUB-xccHC32gCkMQyu5r-oBFYJfZtPeByY0IacKtHwA9fFL6RbSXwie1oPyMFBITNt3dlYsJCiEisa5YJBa-IphYYLJbZz8PnFFvAdnVE-8SZKRqbaoWSBdnwZ0BserbWX-t0LHKESwIOLSk3-PJfkim5o_4XaQcfEn6mkjima4_x9omOrZPo-oLJpudMKyly11DH_2CUvZa6nxF0ZyBOzR_HAAx0N1pyy3wzs4WdOGfcNepVO5WYz3KdXprOMpot6-eu0EhIzeABqfqj-jCyZ-VFhnR9AXFujhYNdamCoKUdOhGP4VWSEUGj2nXn48Jbt5rdithdmcXaI6wGxiCx17UAYI5Ll29DtND5FiGI_-pjrcn2aPzmNNu0m00]--></g></svg>