<?xml version="1.0" encoding="us-ascii" standalone="no"?><svg xmlns="http://www.w3.org/2000/svg" xmlns:xlink="http://www.w3.org/1999/xlink" contentStyleType="text/css" height="765px" preserveAspectRatio="none" style="width:1209px;height:765px;background:#FFFFFF;" version="1.1" viewBox="0 0 1209 765" width="1209px" zoomAndPan="magnify"><defs/><g><!--cluster Architecture--><g id="cluster_Architecture"><polygon fill="none" points="16,16,26,6,1192,6,1192,738,1182,748,16,748,16,16" style="stroke:#181818;stroke-width:1.0;"/><line style="stroke:#181818;stroke-width:1.0;" x1="1182" x2="1192" y1="16" y2="6"/><line style="stroke:#181818;stroke-width:1.0;" x1="16" x2="1182" y1="16" y2="16"/><line style="stroke:#181818;stroke-width:1.0;" x1="1182" x2="1182" y1="16" y2="748"/><text fill="#000000" font-family="sans-serif" font-size="14" font-weight="bold" lengthAdjust="spacing" textLength="87" x="556.5" y="33.5332">Architecture</text></g><!--cluster Infrastructure--><g id="cluster_Infrastructure"><polygon fill="none" points="847,65,857,55,1168,55,1168,150,1158,160,847,160,847,65" style="stroke:#181818;stroke-width:1.0;"/><line style="stroke:#181818;stroke-width:1.0;" x1="1158" x2="1168" y1="65" y2="55"/><line style="stroke:#181818;stroke-width:1.0;" x1="847" x2="1158" y1="65" y2="65"/><line style="stroke:#181818;stroke-width:1.0;" x1="1158" x2="1158" y1="65" y2="160"/><text fill="#000000" font-family="sans-serif" font-size="14" font-weight="bold" lengthAdjust="spacing" textLength="97" x="955" y="82.5332">Infrastructure</text></g><!--cluster security--><g id="cluster_security"><polygon fill="none" points="250,65,260,55,823,55,823,150,813,160,250,160,250,65" style="stroke:#181818;stroke-width:1.0;"/><line style="stroke:#181818;stroke-width:1.0;" x1="813" x2="823" y1="65" y2="55"/><line style="stroke:#181818;stroke-width:1.0;" x1="250" x2="813" y1="65" y2="65"/><line style="stroke:#181818;stroke-width:1.0;" x1="813" x2="813" y1="65" y2="160"/><text fill="#000000" font-family="sans-serif" font-size="14" font-weight="bold" lengthAdjust="spacing" textLength="56" x="504.5" y="82.5332">security</text></g><!--cluster frontend--><g id="cluster_frontend"><polygon fill="none" points="462,220,472,210,1033,210,1033,460,1023,470,462,470,462,220" style="stroke:#181818;stroke-width:1.0;"/><line style="stroke:#181818;stroke-width:1.0;" x1="1023" x2="1033" y1="220" y2="210"/><line style="stroke:#181818;stroke-width:1.0;" x1="462" x2="1023" y1="220" y2="220"/><line style="stroke:#181818;stroke-width:1.0;" x1="1023" x2="1023" y1="220" y2="470"/><text fill="#000000" font-family="sans-serif" font-size="14" font-weight="bold" lengthAdjust="spacing" textLength="61" x="713" y="237.5332">frontend</text></g><!--cluster backend--><g id="cluster_backend"><polygon fill="none" points="175,375,185,365,438,365,438,714,428,724,175,724,175,375" style="stroke:#181818;stroke-width:1.0;"/><line style="stroke:#181818;stroke-width:1.0;" x1="428" x2="438" y1="375" y2="365"/><line style="stroke:#181818;stroke-width:1.0;" x1="175" x2="428" y1="375" y2="375"/><line style="stroke:#181818;stroke-width:1.0;" x1="428" x2="428" y1="375" y2="724"/><text fill="#000000" font-family="sans-serif" font-size="14" font-weight="bold" lengthAdjust="spacing" textLength="60" x="272.5" y="392.5332">backend</text></g><!--cluster integrations--><g id="cluster_integrations"><polygon fill="none" points="40,220,50,210,342,210,342,305,332,315,40,315,40,220" style="stroke:#181818;stroke-width:1.0;"/><line style="stroke:#181818;stroke-width:1.0;" x1="332" x2="342" y1="220" y2="210"/><line style="stroke:#181818;stroke-width:1.0;" x1="40" x2="332" y1="220" y2="220"/><line style="stroke:#181818;stroke-width:1.0;" x1="332" x2="332" y1="220" y2="315"/><text fill="#000000" font-family="sans-serif" font-size="14" font-weight="bold" lengthAdjust="spacing" textLength="85" x="144.5" y="237.5332">integrations</text></g><!--entity cloud hosting--><g id="elem_cloud hosting"><rect fill="#F1F1F1" height="47.6094" rx="2.5" ry="2.5" style="stroke:#181818;stroke-width:0.5;" width="124" x="1028" y="96"/><rect fill="#F1F1F1" height="10" style="stroke:#181818;stroke-width:0.5;" width="15" x="1132" y="101"/><rect fill="#F1F1F1" height="2" style="stroke:#181818;stroke-width:0.5;" width="4" x="1130" y="103"/><rect fill="#F1F1F1" height="2" style="stroke:#181818;stroke-width:0.5;" width="4" x="1130" y="107"/><text fill="#000000" font-family="sans-serif" font-size="14" lengthAdjust="spacing" textLength="84" x="1043" y="130.5332">cloud hosting</text></g><!--entity CI/CD pipeline--><g id="elem_CI/CD pipeline"><rect fill="#F1F1F1" height="47.6094" rx="2.5" ry="2.5" style="stroke:#181818;stroke-width:0.5;" width="130" x="863" y="96"/><rect fill="#F1F1F1" height="10" style="stroke:#181818;stroke-width:0.5;" width="15" x="973" y="101"/><rect fill="#F1F1F1" height="2" style="stroke:#181818;stroke-width:0.5;" width="4" x="971" y="103"/><rect fill="#F1F1F1" height="2" style="stroke:#181818;stroke-width:0.5;" width="4" x="971" y="107"/><text fill="#000000" font-family="sans-serif" font-size="14" lengthAdjust="spacing" textLength="90" x="878" y="130.5332">CI/CD pipeline</text></g><!--entity Access Control--><g id="elem_Access Control"><rect fill="#F1F1F1" height="47.6094" rx="2.5" ry="2.5" style="stroke:#181818;stroke-width:0.5;" width="135" x="373.5" y="96"/><rect fill="#F1F1F1" height="10" style="stroke:#181818;stroke-width:0.5;" width="15" x="488.5" y="101"/><rect fill="#F1F1F1" height="2" style="stroke:#181818;stroke-width:0.5;" width="4" x="486.5" y="103"/><rect fill="#F1F1F1" height="2" style="stroke:#181818;stroke-width:0.5;" width="4" x="486.5" y="107"/><text fill="#000000" font-family="sans-serif" font-size="14" lengthAdjust="spacing" textLength="95" x="388.5" y="130.5332">Access Control</text></g><!--entity Encryption--><g id="elem_Encryption"><rect fill="#F1F1F1" height="47.6094" rx="2.5" ry="2.5" style="stroke:#181818;stroke-width:0.5;" width="107" x="699.5" y="96"/><rect fill="#F1F1F1" height="10" style="stroke:#181818;stroke-width:0.5;" width="15" x="786.5" y="101"/><rect fill="#F1F1F1" height="2" style="stroke:#181818;stroke-width:0.5;" width="4" x="784.5" y="103"/><rect fill="#F1F1F1" height="2" style="stroke:#181818;stroke-width:0.5;" width="4" x="784.5" y="107"/><text fill="#000000" font-family="sans-serif" font-size="14" lengthAdjust="spacing" textLength="67" x="714.5" y="130.5332">Encryption</text></g><!--entity OAuth2/JWT--><g id="elem_OAuth2/JWT"><rect fill="#F1F1F1" height="47.6094" rx="2.5" ry="2.5" style="stroke:#181818;stroke-width:0.5;" width="120" x="544" y="96"/><rect fill="#F1F1F1" height="10" style="stroke:#181818;stroke-width:0.5;" width="15" x="644" y="101"/><rect fill="#F1F1F1" height="2" style="stroke:#181818;stroke-width:0.5;" width="4" x="642" y="103"/><rect fill="#F1F1F1" height="2" style="stroke:#181818;stroke-width:0.5;" width="4" x="642" y="107"/><text fill="#000000" font-family="sans-serif" font-size="14" lengthAdjust="spacing" textLength="80" x="559" y="130.5332">OAuth2/JWT</text></g><!--entity Audit--><g id="elem_Audit"><rect fill="#F1F1F1" height="47.6094" rx="2.5" ry="2.5" style="stroke:#181818;stroke-width:0.5;" width="72" x="266" y="96"/><rect fill="#F1F1F1" height="10" style="stroke:#181818;stroke-width:0.5;" width="15" x="318" y="101"/><rect fill="#F1F1F1" height="2" style="stroke:#181818;stroke-width:0.5;" width="4" x="316" y="103"/><rect fill="#F1F1F1" height="2" style="stroke:#181818;stroke-width:0.5;" width="4" x="316" y="107"/><text fill="#000000" font-family="sans-serif" font-size="14" lengthAdjust="spacing" textLength="32" x="281" y="130.5332">Audit</text></g><!--entity Nextjs--><g id="elem_Nextjs"><rect fill="#F1F1F1" height="47.6094" rx="2.5" ry="2.5" style="stroke:#181818;stroke-width:0.5;" width="77" x="619.5" y="251"/><rect fill="#F1F1F1" height="10" style="stroke:#181818;stroke-width:0.5;" width="15" x="676.5" y="256"/><rect fill="#F1F1F1" height="2" style="stroke:#181818;stroke-width:0.5;" width="4" x="674.5" y="258"/><rect fill="#F1F1F1" height="2" style="stroke:#181818;stroke-width:0.5;" width="4" x="674.5" y="262"/><text fill="#000000" font-family="sans-serif" font-size="14" lengthAdjust="spacing" textLength="37" x="634.5" y="285.5332">Nextjs</text></g><!--entity Redux Toolkit--><g id="elem_Redux Toolkit"><rect fill="#F1F1F1" height="47.6094" rx="2.5" ry="2.5" style="stroke:#181818;stroke-width:0.5;" width="126" x="732" y="251"/><rect fill="#F1F1F1" height="10" style="stroke:#181818;stroke-width:0.5;" width="15" x="838" y="256"/><rect fill="#F1F1F1" height="2" style="stroke:#181818;stroke-width:0.5;" width="4" x="836" y="258"/><rect fill="#F1F1F1" height="2" style="stroke:#181818;stroke-width:0.5;" width="4" x="836" y="262"/><text fill="#000000" font-family="sans-serif" font-size="14" lengthAdjust="spacing" textLength="86" x="747" y="285.5332">Redux Toolkit</text></g><!--entity Tailwind CSS--><g id="elem_Tailwind CSS"><rect fill="#F1F1F1" height="47.6094" rx="2.5" ry="2.5" style="stroke:#181818;stroke-width:0.5;" width="123" x="893.5" y="251"/><rect fill="#F1F1F1" height="10" style="stroke:#181818;stroke-width:0.5;" width="15" x="996.5" y="256"/><rect fill="#F1F1F1" height="2" style="stroke:#181818;stroke-width:0.5;" width="4" x="994.5" y="258"/><rect fill="#F1F1F1" height="2" style="stroke:#181818;stroke-width:0.5;" width="4" x="994.5" y="262"/><text fill="#000000" font-family="sans-serif" font-size="14" lengthAdjust="spacing" textLength="83" x="908.5" y="285.5332">Tailwind CSS</text></g><!--entity Markmap--><g id="elem_Markmap"><rect fill="#F1F1F1" height="47.6094" rx="2.5" ry="2.5" style="stroke:#181818;stroke-width:0.5;" width="98" x="746" y="406"/><rect fill="#F1F1F1" height="10" style="stroke:#181818;stroke-width:0.5;" width="15" x="824" y="411"/><rect fill="#F1F1F1" height="2" style="stroke:#181818;stroke-width:0.5;" width="4" x="822" y="413"/><rect fill="#F1F1F1" height="2" style="stroke:#181818;stroke-width:0.5;" width="4" x="822" y="417"/><text fill="#000000" font-family="sans-serif" font-size="14" lengthAdjust="spacing" textLength="58" x="761" y="440.5332">Markmap</text></g><!--entity NextAuthjs--><g id="elem_NextAuthjs"><rect fill="#F1F1F1" height="47.6094" rx="2.5" ry="2.5" style="stroke:#181818;stroke-width:0.5;" width="106" x="478" y="251"/><rect fill="#F1F1F1" height="10" style="stroke:#181818;stroke-width:0.5;" width="15" x="564" y="256"/><rect fill="#F1F1F1" height="2" style="stroke:#181818;stroke-width:0.5;" width="4" x="562" y="258"/><rect fill="#F1F1F1" height="2" style="stroke:#181818;stroke-width:0.5;" width="4" x="562" y="262"/><text fill="#000000" font-family="sans-serif" font-size="14" lengthAdjust="spacing" textLength="66" x="493" y="285.5332">NextAuthjs</text></g><!--entity Nestjs--><g id="elem_Nestjs"><rect fill="#F1F1F1" height="47.6094" rx="2.5" ry="2.5" style="stroke:#181818;stroke-width:0.5;" width="78" x="280" y="406"/><rect fill="#F1F1F1" height="10" style="stroke:#181818;stroke-width:0.5;" width="15" x="338" y="411"/><rect fill="#F1F1F1" height="2" style="stroke:#181818;stroke-width:0.5;" width="4" x="336" y="413"/><rect fill="#F1F1F1" height="2" style="stroke:#181818;stroke-width:0.5;" width="4" x="336" y="417"/><text fill="#000000" font-family="sans-serif" font-size="14" lengthAdjust="spacing" textLength="38" x="295" y="440.5332">Nestjs</text></g><!--entity Prisma ORM--><g id="elem_Prisma ORM"><rect fill="#F1F1F1" height="47.6094" rx="2.5" ry="2.5" style="stroke:#181818;stroke-width:0.5;" width="119" x="191.5" y="534"/><rect fill="#F1F1F1" height="10" style="stroke:#181818;stroke-width:0.5;" width="15" x="290.5" y="539"/><rect fill="#F1F1F1" height="2" style="stroke:#181818;stroke-width:0.5;" width="4" x="288.5" y="541"/><rect fill="#F1F1F1" height="2" style="stroke:#181818;stroke-width:0.5;" width="4" x="288.5" y="545"/><text fill="#000000" font-family="sans-serif" font-size="14" lengthAdjust="spacing" textLength="79" x="206.5" y="568.5332">Prisma ORM</text></g><!--entity Postgres--><g id="elem_Postgres"><rect fill="#F1F1F1" height="47.6094" rx="2.5" ry="2.5" style="stroke:#181818;stroke-width:0.5;" width="96" x="295" y="660"/><rect fill="#F1F1F1" height="10" style="stroke:#181818;stroke-width:0.5;" width="15" x="371" y="665"/><rect fill="#F1F1F1" height="2" style="stroke:#181818;stroke-width:0.5;" width="4" x="369" y="667"/><rect fill="#F1F1F1" height="2" style="stroke:#181818;stroke-width:0.5;" width="4" x="369" y="671"/><text fill="#000000" font-family="sans-serif" font-size="14" lengthAdjust="spacing" textLength="56" x="310" y="694.5332">Postgres</text></g><!--entity Redis--><g id="elem_Redis"><rect fill="#F1F1F1" height="47.6094" rx="2.5" ry="2.5" style="stroke:#181818;stroke-width:0.5;" width="76" x="346" y="534"/><rect fill="#F1F1F1" height="10" style="stroke:#181818;stroke-width:0.5;" width="15" x="402" y="539"/><rect fill="#F1F1F1" height="2" style="stroke:#181818;stroke-width:0.5;" width="4" x="400" y="541"/><rect fill="#F1F1F1" height="2" style="stroke:#181818;stroke-width:0.5;" width="4" x="400" y="545"/><text fill="#000000" font-family="sans-serif" font-size="14" lengthAdjust="spacing" textLength="36" x="361" y="568.5332">Redis</text></g><!--entity API Key Mgmt--><g id="elem_API Key Mgmt"><rect fill="#F1F1F1" height="47.6094" rx="2.5" ry="2.5" style="stroke:#181818;stroke-width:0.5;" width="127" x="56.5" y="251"/><rect fill="#F1F1F1" height="10" style="stroke:#181818;stroke-width:0.5;" width="15" x="163.5" y="256"/><rect fill="#F1F1F1" height="2" style="stroke:#181818;stroke-width:0.5;" width="4" x="161.5" y="258"/><rect fill="#F1F1F1" height="2" style="stroke:#181818;stroke-width:0.5;" width="4" x="161.5" y="262"/><text fill="#000000" font-family="sans-serif" font-size="14" lengthAdjust="spacing" textLength="87" x="71.5" y="285.5332">API Key Mgmt</text></g><!--entity Webhooks--><g id="elem_Webhooks"><rect fill="#F1F1F1" height="47.6094" rx="2.5" ry="2.5" style="stroke:#181818;stroke-width:0.5;" width="107" x="218.5" y="251"/><rect fill="#F1F1F1" height="10" style="stroke:#181818;stroke-width:0.5;" width="15" x="305.5" y="256"/><rect fill="#F1F1F1" height="2" style="stroke:#181818;stroke-width:0.5;" width="4" x="303.5" y="258"/><rect fill="#F1F1F1" height="2" style="stroke:#181818;stroke-width:0.5;" width="4" x="303.5" y="262"/><text fill="#000000" font-family="sans-serif" font-size="14" lengthAdjust="spacing" textLength="67" x="233.5" y="285.5332">Webhooks</text></g><!--link Encryption to Postgres--><g id="link_Encryption_Postgres"><path d="M793.1,144.19 C809.39,152.76 828.65,161.88 847,168 C956.45,204.54 1084,158.61 1084,274 C1084,274 1084,274 1084,559 C1084,629.52 561.2373,668.9906 397.0373,679.6706 " fill="none" id="Encryption-to-Postgres" style="stroke:#181818;stroke-width:1.0;"/><polygon fill="#181818" points="391.05,680.06,400.2906,683.4674,396.0395,679.7355,399.7714,675.4843,391.05,680.06" style="stroke:#181818;stroke-width:1.0;"/><text fill="#000000" font-family="sans-serif" font-size="13" lengthAdjust="spacing" textLength="90" x="1085" y="435.4951">Data Protection</text></g><!--link Audit to Nestjs--><g id="link_Audit_Nestjs"><path d="M315.86,144.18 C337.41,181.78 377.81,259.14 391,331 C392.44,338.87 393.87,341.53 391,349 C382.43,371.33 368.8694,387.2937 353.0094,401.7137 " fill="none" id="Audit-to-Nestjs" style="stroke:#181818;stroke-width:1.0;"/><polygon fill="#181818" points="348.57,405.75,357.92,402.6551,352.2695,402.3864,352.5382,396.7359,348.57,405.75" style="stroke:#181818;stroke-width:1.0;"/><text fill="#000000" font-family="sans-serif" font-size="13" lengthAdjust="spacing" textLength="45" x="390" y="280.4951">Logging</text></g><!--link Nextjs to Nestjs--><g id="link_Nextjs_Nestjs"><path d="M635.49,299 C625.89,307.65 614.12,316.87 602,323 C544.86,351.9 522.1,334.9 462,357 C425.61,370.38 391.6579,387.6515 363.5279,403.2415 " fill="none" id="Nextjs-to-Nestjs" style="stroke:#181818;stroke-width:1.0;"/><polygon fill="#181818" points="358.28,406.15,368.0909,405.2859,362.6533,403.7263,364.2129,398.2887,358.28,406.15" style="stroke:#181818;stroke-width:1.0;"/><text fill="#000000" font-family="sans-serif" font-size="13" lengthAdjust="spacing" textLength="21" x="583" y="345.4951">API</text></g><!--link OAuth2/JWT to NextAuthjs--><g id="link_OAuth2/JWT_NextAuthjs"><path d="M592.91,144.24 C579.19,172.99 558.5445,216.2752 544.7745,245.1252 " fill="none" id="OAuth2/JWT-to-NextAuthjs" style="stroke:#181818;stroke-width:1.0;"/><polygon fill="#181818" points="542.19,250.54,549.6766,244.1407,544.3437,246.0276,542.4568,240.6948,542.19,250.54" style="stroke:#181818;stroke-width:1.0;"/><text fill="#000000" font-family="sans-serif" font-size="13" lengthAdjust="spacing" textLength="58" x="577" y="190.4951">User Auth</text></g><!--link Access Control to NextAuthjs--><g id="link_Access Control_NextAuthjs"><path d="M454.67,144.24 C471.59,172.99 497.188,216.5183 514.158,245.3683 " fill="none" id="Access Control-to-NextAuthjs" style="stroke:#181818;stroke-width:1.0;"/><polygon fill="#181818" points="517.2,250.54,516.0847,240.7545,514.665,246.2303,509.1892,244.8106,517.2,250.54" style="stroke:#181818;stroke-width:1.0;"/><text fill="#000000" font-family="sans-serif" font-size="13" lengthAdjust="spacing" textLength="63" x="484" y="190.4951">Role Mgmt</text></g><!--link Webhooks to Nestjs--><g id="link_Webhooks_Nestjs"><path d="M265.8,299.15 C262.93,313.73 261.12,332.81 266,349 C272.34,370.06 282.5021,385.9766 294.4721,401.0066 " fill="none" id="Webhooks-to-Nestjs" style="stroke:#181818;stroke-width:1.0;"/><polygon fill="#181818" points="298.21,405.7,295.7321,396.1679,295.0951,401.7888,289.4742,401.1518,298.21,405.7" style="stroke:#181818;stroke-width:1.0;"/><text fill="#000000" font-family="sans-serif" font-size="13" lengthAdjust="spacing" textLength="119" x="267" y="345.4951">External Integrations</text></g><!--link API Key Mgmt to Nestjs--><g id="link_API Key Mgmt_Nestjs"><path d="M129.92,299.34 C137.47,314.92 149.09,335.04 164,349 C197.6,380.46 240.3475,400.6124 274.0775,413.5424 " fill="none" id="API Key Mgmt-to-Nestjs" style="stroke:#181818;stroke-width:1.0;"/><polygon fill="#181818" points="279.68,415.69,272.7081,408.7336,275.0113,413.9003,269.8445,416.2035,279.68,415.69" style="stroke:#181818;stroke-width:1.0;"/><text fill="#000000" font-family="sans-serif" font-size="13" lengthAdjust="spacing" textLength="89" x="165" y="345.4951">Secure Access</text></g><!--link Prisma ORM to Postgres--><g id="link_Prisma ORM_Postgres"><path d="M268.09,582.03 C284.51,604.17 305.6254,632.6211 322.1154,654.8511 " fill="none" id="Prisma ORM-to-Postgres" style="stroke:#181818;stroke-width:1.0;"/><polygon fill="#181818" points="325.69,659.67,323.5407,650.0585,322.7111,655.6542,317.1154,654.8247,325.69,659.67" style="stroke:#181818;stroke-width:1.0;"/><text fill="#000000" font-family="sans-serif" font-size="13" lengthAdjust="spacing" textLength="67" x="303" y="626.4951">DB Queries</text></g><!--link Nestjs to Redis--><g id="link_Nestjs_Redis"><path d="M330.92,454.11 C342.58,476.7 357.4802,505.5872 369.1802,528.2772 " fill="none" id="Nestjs-to-Redis" style="stroke:#181818;stroke-width:1.0;"/><polygon fill="#181818" points="371.93,533.61,371.3605,523.7776,369.6385,529.166,364.2501,527.4441,371.93,533.61" style="stroke:#181818;stroke-width:1.0;"/><text fill="#000000" font-family="sans-serif" font-size="13" lengthAdjust="spacing" textLength="47" x="356" y="500.4951">Caching</text></g><!--link Nestjs to Prisma ORM--><g id="link_Nestjs_Prisma ORM"><path d="M294.11,454.03 C285.41,463.24 276.25,474.41 270,486 C261.94,500.94 258.2634,513.628 255.4934,528.028 " fill="none" id="Nestjs-to-Prisma ORM" style="stroke:#181818;stroke-width:1.0;"/><polygon fill="#181818" points="254.36,533.92,259.9881,525.8376,255.3045,529.01,252.1321,524.3264,254.36,533.92" style="stroke:#181818;stroke-width:1.0;"/><text fill="#000000" font-family="sans-serif" font-size="13" lengthAdjust="spacing" textLength="67" x="271" y="500.4951">DB Queries</text></g><!--SRC=[VLEnRi8m4Dtz5ITsXDGnGwKqCAGjXG8LGyLWd2Dn4-p8TbHGnRyt8RIOIrflrZk_U_VU6G10wGHX41gHIOV2LGO7yCNWSbeqLZl3hJDL1s_EkoXqbK2chPCgtTnYKJoAnb3A4Wkfy0gUI0kBeZBI7GU4EnG2hOL8AsTqGSWdIfXZwQHM19Y5bSlkHe_h5G72Af7kRnKxK_T1bL0LBtXm7vPmBJ2f3h3IkiXzpZEsuhBub2g1QBaaq9IRVC_BJRT38zhlGjLjkSXxnTckkBcHTizXjfXIe8ufDTWpZFodjQnjIGrlhBQTYEOnFE4HfkcUsh36RQPrVY4-CKPZW-7mtjCKm9Wx3dEZcrsi2vYNMbjxcJQ0PvsczRunFw2cv5fH2sDq7Nv8VjqEuCsYWUR6-ZQkvy525tYUbjqEIGHE3WwDuWN4ddciQnbvjcn-0a8hWz4mkuOzm6k5Hg9b_ZQqTMsg0KIy_jvNhxmAZxh3TVe6]--></g></svg>