<?xml version="1.0" encoding="us-ascii" standalone="no"?><svg xmlns="http://www.w3.org/2000/svg" xmlns:xlink="http://www.w3.org/1999/xlink" contentStyleType="text/css" height="838px" preserveAspectRatio="none" style="width:1764px;height:838px;background:#FFFFFF;" version="1.1" viewBox="0 0 1764 838" width="1764px" zoomAndPan="magnify"><defs/><g><!--cluster Architecture--><g id="cluster_Architecture"><polygon fill="none" points="16,16,26,6,1747,6,1747,811,1737,821,16,821,16,16" style="stroke:#181818;stroke-width:1.0;"/><line style="stroke:#181818;stroke-width:1.0;" x1="1737" x2="1747" y1="16" y2="6"/><line style="stroke:#181818;stroke-width:1.0;" x1="16" x2="1737" y1="16" y2="16"/><line style="stroke:#181818;stroke-width:1.0;" x1="1737" x2="1737" y1="16" y2="821"/><text fill="#000000" font-family="sans-serif" font-size="14" font-weight="bold" lengthAdjust="spacing" textLength="87" x="834" y="33.5332">Architecture</text></g><!--cluster security--><g id="cluster_security"><polygon fill="none" points="344,65,354,55,917,55,917,150,907,160,344,160,344,65" style="stroke:#181818;stroke-width:1.0;"/><line style="stroke:#181818;stroke-width:1.0;" x1="907" x2="917" y1="65" y2="55"/><line style="stroke:#181818;stroke-width:1.0;" x1="344" x2="907" y1="65" y2="65"/><line style="stroke:#181818;stroke-width:1.0;" x1="907" x2="907" y1="65" y2="160"/><text fill="#000000" font-family="sans-serif" font-size="14" font-weight="bold" lengthAdjust="spacing" textLength="56" x="598.5" y="82.5332">security</text></g><!--cluster frontend--><g id="cluster_frontend"><polygon fill="none" points="462,220,472,210,1588,210,1588,506,1578,516,462,516,462,220" style="stroke:#181818;stroke-width:1.0;"/><line style="stroke:#181818;stroke-width:1.0;" x1="1578" x2="1588" y1="220" y2="210"/><line style="stroke:#181818;stroke-width:1.0;" x1="462" x2="1578" y1="220" y2="220"/><line style="stroke:#181818;stroke-width:1.0;" x1="1578" x2="1578" y1="220" y2="516"/><text fill="#000000" font-family="sans-serif" font-size="14" font-weight="bold" lengthAdjust="spacing" textLength="61" x="990.5" y="237.5332">frontend</text></g><!--cluster renderers--><g id="cluster_renderers"><polygon fill="none" points="1319,269,1329,259,1564,259,1564,354,1554,364,1319,364,1319,269" style="stroke:#181818;stroke-width:1.0;"/><line style="stroke:#181818;stroke-width:1.0;" x1="1554" x2="1564" y1="269" y2="259"/><line style="stroke:#181818;stroke-width:1.0;" x1="1319" x2="1554" y1="269" y2="269"/><line style="stroke:#181818;stroke-width:1.0;" x1="1554" x2="1554" y1="269" y2="364"/><text fill="#000000" font-family="sans-serif" font-size="14" font-weight="bold" lengthAdjust="spacing" textLength="71" x="1402" y="286.5332">renderers</text></g><!--cluster editors--><g id="cluster_editors"><polygon fill="none" points="1035,269,1045,259,1295,259,1295,482,1285,492,1035,492,1035,269" style="stroke:#181818;stroke-width:1.0;"/><line style="stroke:#181818;stroke-width:1.0;" x1="1285" x2="1295" y1="269" y2="259"/><line style="stroke:#181818;stroke-width:1.0;" x1="1035" x2="1285" y1="269" y2="269"/><line style="stroke:#181818;stroke-width:1.0;" x1="1285" x2="1285" y1="269" y2="492"/><text fill="#000000" font-family="sans-serif" font-size="14" font-weight="bold" lengthAdjust="spacing" textLength="50" x="1136" y="286.5332">editors</text></g><!--cluster backend--><g id="cluster_backend"><polygon fill="none" points="320,576,330,566,724,566,724,787,714,797,320,797,320,576" style="stroke:#181818;stroke-width:1.0;"/><line style="stroke:#181818;stroke-width:1.0;" x1="714" x2="724" y1="576" y2="566"/><line style="stroke:#181818;stroke-width:1.0;" x1="320" x2="714" y1="576" y2="576"/><line style="stroke:#181818;stroke-width:1.0;" x1="714" x2="714" y1="576" y2="797"/><text fill="#000000" font-family="sans-serif" font-size="14" font-weight="bold" lengthAdjust="spacing" textLength="60" x="488" y="593.5332">backend</text></g><!--cluster integrations--><g id="cluster_integrations"><polygon fill="none" points="40,269,50,259,342,259,342,354,332,364,40,364,40,269" style="stroke:#181818;stroke-width:1.0;"/><line style="stroke:#181818;stroke-width:1.0;" x1="332" x2="342" y1="269" y2="259"/><line style="stroke:#181818;stroke-width:1.0;" x1="40" x2="332" y1="269" y2="269"/><line style="stroke:#181818;stroke-width:1.0;" x1="332" x2="332" y1="269" y2="364"/><text fill="#000000" font-family="sans-serif" font-size="14" font-weight="bold" lengthAdjust="spacing" textLength="85" x="144.5" y="286.5332">integrations</text></g><!--entity cloud hosting--><g id="elem_cloud hosting"><rect fill="#F1F1F1" height="47.6094" rx="2.5" ry="2.5" style="stroke:#181818;stroke-width:0.5;" width="124" x="200" y="96"/><rect fill="#F1F1F1" height="10" style="stroke:#181818;stroke-width:0.5;" width="15" x="304" y="101"/><rect fill="#F1F1F1" height="2" style="stroke:#181818;stroke-width:0.5;" width="4" x="302" y="103"/><rect fill="#F1F1F1" height="2" style="stroke:#181818;stroke-width:0.5;" width="4" x="302" y="107"/><text fill="#000000" font-family="sans-serif" font-size="14" lengthAdjust="spacing" textLength="84" x="215" y="130.5332">cloud hosting</text></g><!--entity CI/CD pipeline--><g id="elem_CI/CD pipeline"><rect fill="#F1F1F1" height="47.6094" rx="2.5" ry="2.5" style="stroke:#181818;stroke-width:0.5;" width="130" x="33" y="96"/><rect fill="#F1F1F1" height="10" style="stroke:#181818;stroke-width:0.5;" width="15" x="143" y="101"/><rect fill="#F1F1F1" height="2" style="stroke:#181818;stroke-width:0.5;" width="4" x="141" y="103"/><rect fill="#F1F1F1" height="2" style="stroke:#181818;stroke-width:0.5;" width="4" x="141" y="107"/><text fill="#000000" font-family="sans-serif" font-size="14" lengthAdjust="spacing" textLength="90" x="48" y="130.5332">CI/CD pipeline</text></g><!--entity Nestjs--><g id="elem_Nestjs"><rect fill="#F1F1F1" height="47.6094" rx="2.5" ry="2.5" style="stroke:#181818;stroke-width:0.5;" width="78" x="357" y="428"/><rect fill="#F1F1F1" height="10" style="stroke:#181818;stroke-width:0.5;" width="15" x="415" y="433"/><rect fill="#F1F1F1" height="2" style="stroke:#181818;stroke-width:0.5;" width="4" x="413" y="435"/><rect fill="#F1F1F1" height="2" style="stroke:#181818;stroke-width:0.5;" width="4" x="413" y="439"/><text fill="#000000" font-family="sans-serif" font-size="14" lengthAdjust="spacing" textLength="38" x="372" y="462.5332">Nestjs</text></g><!--entity Access Control--><g id="elem_Access Control"><rect fill="#F1F1F1" height="47.6094" rx="2.5" ry="2.5" style="stroke:#181818;stroke-width:0.5;" width="135" x="467.5" y="96"/><rect fill="#F1F1F1" height="10" style="stroke:#181818;stroke-width:0.5;" width="15" x="582.5" y="101"/><rect fill="#F1F1F1" height="2" style="stroke:#181818;stroke-width:0.5;" width="4" x="580.5" y="103"/><rect fill="#F1F1F1" height="2" style="stroke:#181818;stroke-width:0.5;" width="4" x="580.5" y="107"/><text fill="#000000" font-family="sans-serif" font-size="14" lengthAdjust="spacing" textLength="95" x="482.5" y="130.5332">Access Control</text></g><!--entity Encryption--><g id="elem_Encryption"><rect fill="#F1F1F1" height="47.6094" rx="2.5" ry="2.5" style="stroke:#181818;stroke-width:0.5;" width="107" x="793.5" y="96"/><rect fill="#F1F1F1" height="10" style="stroke:#181818;stroke-width:0.5;" width="15" x="880.5" y="101"/><rect fill="#F1F1F1" height="2" style="stroke:#181818;stroke-width:0.5;" width="4" x="878.5" y="103"/><rect fill="#F1F1F1" height="2" style="stroke:#181818;stroke-width:0.5;" width="4" x="878.5" y="107"/><text fill="#000000" font-family="sans-serif" font-size="14" lengthAdjust="spacing" textLength="67" x="808.5" y="130.5332">Encryption</text></g><!--entity OAuth2/JWT--><g id="elem_OAuth2/JWT"><rect fill="#F1F1F1" height="47.6094" rx="2.5" ry="2.5" style="stroke:#181818;stroke-width:0.5;" width="120" x="638" y="96"/><rect fill="#F1F1F1" height="10" style="stroke:#181818;stroke-width:0.5;" width="15" x="738" y="101"/><rect fill="#F1F1F1" height="2" style="stroke:#181818;stroke-width:0.5;" width="4" x="736" y="103"/><rect fill="#F1F1F1" height="2" style="stroke:#181818;stroke-width:0.5;" width="4" x="736" y="107"/><text fill="#000000" font-family="sans-serif" font-size="14" lengthAdjust="spacing" textLength="80" x="653" y="130.5332">OAuth2/JWT</text></g><!--entity Audit--><g id="elem_Audit"><rect fill="#F1F1F1" height="47.6094" rx="2.5" ry="2.5" style="stroke:#181818;stroke-width:0.5;" width="72" x="360" y="96"/><rect fill="#F1F1F1" height="10" style="stroke:#181818;stroke-width:0.5;" width="15" x="412" y="101"/><rect fill="#F1F1F1" height="2" style="stroke:#181818;stroke-width:0.5;" width="4" x="410" y="103"/><rect fill="#F1F1F1" height="2" style="stroke:#181818;stroke-width:0.5;" width="4" x="410" y="107"/><text fill="#000000" font-family="sans-serif" font-size="14" lengthAdjust="spacing" textLength="32" x="375" y="130.5332">Audit</text></g><!--entity Nextjs--><g id="elem_Nextjs"><rect fill="#F1F1F1" height="47.6094" rx="2.5" ry="2.5" style="stroke:#181818;stroke-width:0.5;" width="77" x="939.5" y="300"/><rect fill="#F1F1F1" height="10" style="stroke:#181818;stroke-width:0.5;" width="15" x="996.5" y="305"/><rect fill="#F1F1F1" height="2" style="stroke:#181818;stroke-width:0.5;" width="4" x="994.5" y="307"/><rect fill="#F1F1F1" height="2" style="stroke:#181818;stroke-width:0.5;" width="4" x="994.5" y="311"/><text fill="#000000" font-family="sans-serif" font-size="14" lengthAdjust="spacing" textLength="37" x="954.5" y="334.5332">Nextjs</text></g><!--entity Redux Toolkit--><g id="elem_Redux Toolkit"><rect fill="#F1F1F1" height="47.6094" rx="2.5" ry="2.5" style="stroke:#181818;stroke-width:0.5;" width="126" x="778" y="300"/><rect fill="#F1F1F1" height="10" style="stroke:#181818;stroke-width:0.5;" width="15" x="884" y="305"/><rect fill="#F1F1F1" height="2" style="stroke:#181818;stroke-width:0.5;" width="4" x="882" y="307"/><rect fill="#F1F1F1" height="2" style="stroke:#181818;stroke-width:0.5;" width="4" x="882" y="311"/><text fill="#000000" font-family="sans-serif" font-size="14" lengthAdjust="spacing" textLength="86" x="793" y="334.5332">Redux Toolkit</text></g><!--entity Tailwind CSS--><g id="elem_Tailwind CSS"><rect fill="#F1F1F1" height="47.6094" rx="2.5" ry="2.5" style="stroke:#181818;stroke-width:0.5;" width="123" x="619.5" y="300"/><rect fill="#F1F1F1" height="10" style="stroke:#181818;stroke-width:0.5;" width="15" x="722.5" y="305"/><rect fill="#F1F1F1" height="2" style="stroke:#181818;stroke-width:0.5;" width="4" x="720.5" y="307"/><rect fill="#F1F1F1" height="2" style="stroke:#181818;stroke-width:0.5;" width="4" x="720.5" y="311"/><text fill="#000000" font-family="sans-serif" font-size="14" lengthAdjust="spacing" textLength="83" x="634.5" y="334.5332">Tailwind CSS</text></g><!--entity NextAuthjs--><g id="elem_NextAuthjs"><rect fill="#F1F1F1" height="47.6094" rx="2.5" ry="2.5" style="stroke:#181818;stroke-width:0.5;" width="106" x="478" y="300"/><rect fill="#F1F1F1" height="10" style="stroke:#181818;stroke-width:0.5;" width="15" x="564" y="305"/><rect fill="#F1F1F1" height="2" style="stroke:#181818;stroke-width:0.5;" width="4" x="562" y="307"/><rect fill="#F1F1F1" height="2" style="stroke:#181818;stroke-width:0.5;" width="4" x="562" y="311"/><text fill="#000000" font-family="sans-serif" font-size="14" lengthAdjust="spacing" textLength="66" x="493" y="334.5332">NextAuthjs</text></g><!--entity Markmap--><g id="elem_Markmap"><rect fill="#F1F1F1" height="47.6094" rx="2.5" ry="2.5" style="stroke:#181818;stroke-width:0.5;" width="98" x="1450" y="300"/><rect fill="#F1F1F1" height="10" style="stroke:#181818;stroke-width:0.5;" width="15" x="1528" y="305"/><rect fill="#F1F1F1" height="2" style="stroke:#181818;stroke-width:0.5;" width="4" x="1526" y="307"/><rect fill="#F1F1F1" height="2" style="stroke:#181818;stroke-width:0.5;" width="4" x="1526" y="311"/><text fill="#000000" font-family="sans-serif" font-size="14" lengthAdjust="spacing" textLength="58" x="1465" y="334.5332">Markmap</text></g><!--entity tlDraw--><g id="elem_tlDraw"><rect fill="#F1F1F1" height="47.6094" rx="2.5" ry="2.5" style="stroke:#181818;stroke-width:0.5;" width="79" x="1335.5" y="300"/><rect fill="#F1F1F1" height="10" style="stroke:#181818;stroke-width:0.5;" width="15" x="1394.5" y="305"/><rect fill="#F1F1F1" height="2" style="stroke:#181818;stroke-width:0.5;" width="4" x="1392.5" y="307"/><rect fill="#F1F1F1" height="2" style="stroke:#181818;stroke-width:0.5;" width="4" x="1392.5" y="311"/><text fill="#000000" font-family="sans-serif" font-size="14" lengthAdjust="spacing" textLength="39" x="1350.5" y="334.5332">tlDraw</text></g><!--entity markedjs--><g id="elem_markedjs"><rect fill="#F1F1F1" height="47.6094" rx="2.5" ry="2.5" style="stroke:#181818;stroke-width:0.5;" width="97" x="1051.5" y="300"/><rect fill="#F1F1F1" height="10" style="stroke:#181818;stroke-width:0.5;" width="15" x="1128.5" y="305"/><rect fill="#F1F1F1" height="2" style="stroke:#181818;stroke-width:0.5;" width="4" x="1126.5" y="307"/><rect fill="#F1F1F1" height="2" style="stroke:#181818;stroke-width:0.5;" width="4" x="1126.5" y="311"/><text fill="#000000" font-family="sans-serif" font-size="14" lengthAdjust="spacing" textLength="57" x="1066.5" y="334.5332">markedjs</text></g><!--entity LaTeX.js--><g id="elem_LaTeX.js"><rect fill="#F1F1F1" height="47.6094" rx="2.5" ry="2.5" style="stroke:#181818;stroke-width:0.5;" width="95" x="1183.5" y="300"/><rect fill="#F1F1F1" height="10" style="stroke:#181818;stroke-width:0.5;" width="15" x="1258.5" y="305"/><rect fill="#F1F1F1" height="2" style="stroke:#181818;stroke-width:0.5;" width="4" x="1256.5" y="307"/><rect fill="#F1F1F1" height="2" style="stroke:#181818;stroke-width:0.5;" width="4" x="1256.5" y="311"/><text fill="#000000" font-family="sans-serif" font-size="14" lengthAdjust="spacing" textLength="55" x="1198.5" y="334.5332">LaTeX.js</text></g><!--entity hugeRTE--><g id="elem_hugeRTE"><rect fill="#F1F1F1" height="47.6094" rx="2.5" ry="2.5" style="stroke:#181818;stroke-width:0.5;" width="100" x="1051" y="428"/><rect fill="#F1F1F1" height="10" style="stroke:#181818;stroke-width:0.5;" width="15" x="1131" y="433"/><rect fill="#F1F1F1" height="2" style="stroke:#181818;stroke-width:0.5;" width="4" x="1129" y="435"/><rect fill="#F1F1F1" height="2" style="stroke:#181818;stroke-width:0.5;" width="4" x="1129" y="439"/><text fill="#000000" font-family="sans-serif" font-size="14" lengthAdjust="spacing" textLength="60" x="1066" y="462.5332">hugeRTE</text></g><!--entity Nestdsfajs--><g id="elem_Nestdsfajs"><rect fill="#F1F1F1" height="47.6094" rx="2.5" ry="2.5" style="stroke:#181818;stroke-width:0.5;" width="105" x="602.5" y="607"/><rect fill="#F1F1F1" height="10" style="stroke:#181818;stroke-width:0.5;" width="15" x="687.5" y="612"/><rect fill="#F1F1F1" height="2" style="stroke:#181818;stroke-width:0.5;" width="4" x="685.5" y="614"/><rect fill="#F1F1F1" height="2" style="stroke:#181818;stroke-width:0.5;" width="4" x="685.5" y="618"/><text fill="#000000" font-family="sans-serif" font-size="14" lengthAdjust="spacing" textLength="65" x="617.5" y="641.5332">Nestdsfajs</text></g><!--entity Prisma ORM--><g id="elem_Prisma ORM"><rect fill="#F1F1F1" height="47.6094" rx="2.5" ry="2.5" style="stroke:#181818;stroke-width:0.5;" width="119" x="336.5" y="607"/><rect fill="#F1F1F1" height="10" style="stroke:#181818;stroke-width:0.5;" width="15" x="435.5" y="612"/><rect fill="#F1F1F1" height="2" style="stroke:#181818;stroke-width:0.5;" width="4" x="433.5" y="614"/><rect fill="#F1F1F1" height="2" style="stroke:#181818;stroke-width:0.5;" width="4" x="433.5" y="618"/><text fill="#000000" font-family="sans-serif" font-size="14" lengthAdjust="spacing" textLength="79" x="351.5" y="641.5332">Prisma ORM</text></g><!--entity Postgres--><g id="elem_Postgres"><rect fill="#F1F1F1" height="47.6094" rx="2.5" ry="2.5" style="stroke:#181818;stroke-width:0.5;" width="96" x="546" y="733"/><rect fill="#F1F1F1" height="10" style="stroke:#181818;stroke-width:0.5;" width="15" x="622" y="738"/><rect fill="#F1F1F1" height="2" style="stroke:#181818;stroke-width:0.5;" width="4" x="620" y="740"/><rect fill="#F1F1F1" height="2" style="stroke:#181818;stroke-width:0.5;" width="4" x="620" y="744"/><text fill="#000000" font-family="sans-serif" font-size="14" lengthAdjust="spacing" textLength="56" x="561" y="767.5332">Postgres</text></g><!--entity Redis--><g id="elem_Redis"><rect fill="#F1F1F1" height="47.6094" rx="2.5" ry="2.5" style="stroke:#181818;stroke-width:0.5;" width="76" x="491" y="607"/><rect fill="#F1F1F1" height="10" style="stroke:#181818;stroke-width:0.5;" width="15" x="547" y="612"/><rect fill="#F1F1F1" height="2" style="stroke:#181818;stroke-width:0.5;" width="4" x="545" y="614"/><rect fill="#F1F1F1" height="2" style="stroke:#181818;stroke-width:0.5;" width="4" x="545" y="618"/><text fill="#000000" font-family="sans-serif" font-size="14" lengthAdjust="spacing" textLength="36" x="506" y="641.5332">Redis</text></g><!--entity API Key Mgmt--><g id="elem_API Key Mgmt"><rect fill="#F1F1F1" height="47.6094" rx="2.5" ry="2.5" style="stroke:#181818;stroke-width:0.5;" width="127" x="56.5" y="300"/><rect fill="#F1F1F1" height="10" style="stroke:#181818;stroke-width:0.5;" width="15" x="163.5" y="305"/><rect fill="#F1F1F1" height="2" style="stroke:#181818;stroke-width:0.5;" width="4" x="161.5" y="307"/><rect fill="#F1F1F1" height="2" style="stroke:#181818;stroke-width:0.5;" width="4" x="161.5" y="311"/><text fill="#000000" font-family="sans-serif" font-size="14" lengthAdjust="spacing" textLength="87" x="71.5" y="334.5332">API Key Mgmt</text></g><!--entity Webhooks--><g id="elem_Webhooks"><rect fill="#F1F1F1" height="47.6094" rx="2.5" ry="2.5" style="stroke:#181818;stroke-width:0.5;" width="107" x="218.5" y="300"/><rect fill="#F1F1F1" height="10" style="stroke:#181818;stroke-width:0.5;" width="15" x="305.5" y="305"/><rect fill="#F1F1F1" height="2" style="stroke:#181818;stroke-width:0.5;" width="4" x="303.5" y="307"/><rect fill="#F1F1F1" height="2" style="stroke:#181818;stroke-width:0.5;" width="4" x="303.5" y="311"/><text fill="#000000" font-family="sans-serif" font-size="14" lengthAdjust="spacing" textLength="67" x="233.5" y="334.5332">Webhooks</text></g><!--link Encryption to Postgres--><g id="link_Encryption_Postgres"><path d="M900.76,121.12 C1047.92,122.37 1453.71,132.21 1564,202 C1617.46,235.83 1639,259.73 1639,323 C1639,323 1639,323 1639,632 C1639,733.74 853.8293,752.2192 648.3093,755.3292 " fill="none" id="Encryption-to-Postgres" style="stroke:#181818;stroke-width:1.0;"/><polygon fill="#181818" points="642.31,755.42,651.3695,759.2834,647.3094,755.3443,651.2484,751.2843,642.31,755.42" style="stroke:#181818;stroke-width:1.0;"/><text fill="#000000" font-family="sans-serif" font-size="13" lengthAdjust="spacing" textLength="90" x="1640" y="457.4951">Data Protection</text></g><!--link Audit to Nestjs--><g id="link_Audit_Nestjs"><path d="M396,144.2 C396,204.8 396,361.26 396,421.82 " fill="none" id="Audit-to-Nestjs" style="stroke:#181818;stroke-width:1.0;"/><polygon fill="#181818" points="396,427.82,400,418.82,396,422.82,392,418.82,396,427.82" style="stroke:#181818;stroke-width:1.0;"/><text fill="#000000" font-family="sans-serif" font-size="13" lengthAdjust="spacing" textLength="45" x="397" y="329.4951">Logging</text></g><!--link Nextjs to Nestjs--><g id="link_Nextjs_Nestjs"><path d="M956.29,348.07 C946.64,356.95 934.61,366.31 922,372 C834.45,411.48 547.9092,438.4603 441.2892,447.3703 " fill="none" id="Nextjs-to-Nestjs" style="stroke:#181818;stroke-width:1.0;"/><polygon fill="#181818" points="435.31,447.87,444.6118,451.1066,440.2926,447.4536,443.9456,443.1344,435.31,447.87" style="stroke:#181818;stroke-width:1.0;"/><text fill="#000000" font-family="sans-serif" font-size="13" lengthAdjust="spacing" textLength="21" x="900" y="394.4951">API</text></g><!--link OAuth2/JWT to NextAuthjs--><g id="link_OAuth2/JWT_NextAuthjs"><path d="M665.31,144.11 C645.49,159.14 620.55,179.99 602,202 C576.1,232.73 556.7054,268.71 544.3354,294.25 " fill="none" id="OAuth2/JWT-to-NextAuthjs" style="stroke:#181818;stroke-width:1.0;"/><polygon fill="#181818" points="541.72,299.65,549.2431,293.2937,543.8995,295.15,542.0431,289.8064,541.72,299.65" style="stroke:#181818;stroke-width:1.0;"/><text fill="#000000" font-family="sans-serif" font-size="13" lengthAdjust="spacing" textLength="58" x="626" y="190.4951">User Auth</text></g><!--link Access Control to NextAuthjs--><g id="link_Access Control_NextAuthjs"><path d="M534.54,144.17 C533.77,183.03 532.3488,254.9012 531.5788,293.7912 " fill="none" id="Access Control-to-NextAuthjs" style="stroke:#181818;stroke-width:1.0;"/><polygon fill="#181818" points="531.46,299.79,535.6374,290.8709,531.559,294.791,527.6389,290.7126,531.46,299.79" style="stroke:#181818;stroke-width:1.0;"/><text fill="#000000" font-family="sans-serif" font-size="13" lengthAdjust="spacing" textLength="63" x="534" y="190.4951">Role Mgmt</text></g><!--link Webhooks to Nestjs--><g id="link_Webhooks_Nestjs"><path d="M263.02,348.28 C258.68,363.65 256.28,383.54 266,398 C286.12,427.94 320.5315,439.8709 350.9615,445.5409 " fill="none" id="Webhooks-to-Nestjs" style="stroke:#181818;stroke-width:1.0;"/><polygon fill="#181818" points="356.86,446.64,348.745,441.0591,351.9446,445.7241,347.2796,448.9237,356.86,446.64" style="stroke:#181818;stroke-width:1.0;"/><text fill="#000000" font-family="sans-serif" font-size="13" lengthAdjust="spacing" textLength="119" x="267" y="394.4951">External Integrations</text></g><!--link API Key Mgmt to Nestjs--><g id="link_API Key Mgmt_Nestjs"><path d="M126.98,348.19 C133.09,364.55 143.6,385.66 160,398 C218.38,441.94 300.4214,450.5027 350.8414,451.5727 " fill="none" id="API Key Mgmt-to-Nestjs" style="stroke:#181818;stroke-width:1.0;"/><polygon fill="#181818" points="356.84,451.7,347.9269,447.5099,351.8411,451.5939,347.7572,455.5081,356.84,451.7" style="stroke:#181818;stroke-width:1.0;"/><text fill="#000000" font-family="sans-serif" font-size="13" lengthAdjust="spacing" textLength="89" x="161" y="394.4951">Secure Access</text></g><!--link Prisma ORM to Postgres--><g id="link_Prisma ORM_Postgres"><path d="M432.78,655.03 C468.23,677.24 516.4947,707.4656 551.9947,729.6956 " fill="none" id="Prisma ORM-to-Postgres" style="stroke:#181818;stroke-width:1.0;"/><polygon fill="#181818" points="557.08,732.88,551.575,724.7133,552.8423,730.2264,547.3292,731.4936,557.08,732.88" style="stroke:#181818;stroke-width:1.0;"/><text fill="#000000" font-family="sans-serif" font-size="13" lengthAdjust="spacing" textLength="67" x="507" y="699.4951">DB Queries</text></g><!--link Nestjs to Redis--><g id="link_Nestjs_Redis"><path d="M421.63,476.1 C437.48,491.13 457.67,511.66 473,532 C491.05,555.94 504.8211,580.9113 515.1611,601.4413 " fill="none" id="Nestjs-to-Redis" style="stroke:#181818;stroke-width:1.0;"/><polygon fill="#181818" points="517.86,606.8,517.3841,596.9626,515.6109,602.3344,510.2391,600.5612,517.86,606.8" style="stroke:#181818;stroke-width:1.0;"/><text fill="#000000" font-family="sans-serif" font-size="13" lengthAdjust="spacing" textLength="47" x="486" y="546.4951">Caching</text></g><!--link Nestjs to Prisma ORM--><g id="link_Nestjs_Prisma ORM"><path d="M396,476.14 C396,510.06 396,566.93 396,600.85 " fill="none" id="Nestjs-to-Prisma ORM" style="stroke:#181818;stroke-width:1.0;"/><polygon fill="#181818" points="396,606.85,400,597.85,396,601.85,392,597.85,396,606.85" style="stroke:#181818;stroke-width:1.0;"/><text fill="#000000" font-family="sans-serif" font-size="13" lengthAdjust="spacing" textLength="67" x="397" y="546.4951">DB Queries</text></g><!--SRC=[RLF1Ri8m3BtdAopkRDAE72PrXGCRR0mwRTB48RHU6oW9Sb8DDF7lI-cWJbblUN6Uttjs0G2qoH1w4QM5SfYwYh07FmB-li-qD5K6XR5EwNpPul7uDXx2JksmL1gNudJJS5bCArBkq6CqKPgYjH0RxSYKZ6UaKphid3AQWIzHvOgxsyVtX85HbIdNd8-isnTvJjGPwzPSa0UHa2oxEH5D9MssShSCKLSEINwtuB7j_8nxjxPCoXopQW-9CUNcBEc49rALtqfd42yMo_1zxOXpD1hHMpA1mi-jLuTPq6uY4_ou2Q2Yod6UZBfoUJ0hcMx2NBmGwpBx9GEg6IcxbV0odtBG3pmdx9XMzZf_vTFFITOJ37n4ip4yuG6c-PP7z8whmfZDXKXqjm3w_NlMVm13wIJCoDJRwGi4MuQcjdQrhYid9i_zbWe-jBgahV2YH7V3pYIN6GtWpI91VHB_BUy_3-Qcn9DJ4Phi21pj7PAM9OnPQE8whiwpHVr38JGoH7Teru4zm6k5fD2AozJNPotD50SGI__3jrcn2aPznNNy1G00]--></g></svg>